<svg xmlns="http://www.w3.org/2000/svg" width="266" height="20.959" viewBox="0 0 266 20.959"><g transform="translate(-107.592 -627.205)"><path d="M4.068,5.187C4.068,6.8,3.8,7.976,1.927,7.9V2.908h.344c1.387-.038,1.8,1.091,1.8,2.279M1.927,9.514c1.855-.038,2.2,1.006,2.2,2.69,0,1.668-.447,2.582-2.2,2.5Zm.5,6.911c2.807,0,3.847-1.357,3.847-4.16,0-1.707-.4-3.033-2.14-3.581V8.639c1.614-.412,1.919-1.875,1.919-3.376,0-2.568-.769-4.084-3.52-4.084H0V16.425Z" transform="translate(107.592 627.557)" fill="#616263"/><path d="M22.479,5.053v6.393c0,.906-.122,2.255,1.17,2.255,1.269,0,1.127-1.242,1.127-2.149v-6.5h1.9v6.9c0,2.11-.624,3.49-2.952,3.49-2.774,0-3.154-1.562-3.154-3.886v-6.5Z" transform="translate(113.732 628.712)" fill="#616263"/><path d="M64.166,15.245c-1.422,0-1.25-2.734-1.25-3.589,0-.823-.172-3.55,1.25-3.55,1.268,0,1.192,2.75,1.192,3.55,0,.815.076,3.589-1.192,3.589M65.3,16.777H67.19V0H65.3V7.7h-.037a1.913,1.913,0,0,0-1.825-1.3c-2.4,0-2.465,3.437-2.465,5.135,0,1.662.034,5.41,2.4,5.41,1.072,0,1.5-.595,1.887-1.479H65.3Z" transform="translate(125.788 627.205)" fill="#616263"/><path d="M43.925,15.245c-1.422,0-1.25-2.734-1.25-3.589,0-.823-.172-3.55,1.25-3.55,1.268,0,1.192,2.75,1.192,3.55,0,.815.076,3.589-1.192,3.589m1.131,1.532h1.893V0H45.056V7.7h-.037a1.913,1.913,0,0,0-1.826-1.3c-2.4,0-2.465,3.437-2.465,5.135,0,1.662.034,5.41,2.4,5.41,1.072,0,1.5-.595,1.887-1.479h.037Z" transform="translate(119.747 627.205)" fill="#616263"/><path d="M82.941,5.053l1.5,7.116h.031l1.728-7.116h1.92l-4.171,14.4h-2l1.586-5.013L80.819,5.053Z" transform="translate(131.712 628.712)" fill="#616263"/><path d="M120.421,1.18l1.441,10.346.076,1.12h.054l.6-5.113,1.05-6.354h1.571l1.661,11.367h.037l.557-4.9.92-6.468h1.967l-2.675,15.246h-1.613l-1.153-7.094-.472-3.847-.015-.382h-.039l-.441,4.1-.144.876-1.075,6.347h-1.654L118.448,1.18Z" transform="translate(142.942 627.557)" fill="#616263"/><path d="M145.355,13.737c-1.464,0-1.279-2.781-1.279-3.5,0-.809-.185-3.551,1.279-3.551s1.266,2.742,1.266,3.551c0,.723.182,3.5-1.266,3.5m0,1.737c2.9,0,3.208-3.108,3.208-5.241,0-2.218-.3-5.3-3.208-5.3-2.925,0-3.222,3.086-3.222,5.3,0,2.133.3,5.241,3.222,5.241" transform="translate(150.01 628.675)" fill="#616263"/><path d="M164.444,6.347h.03a2.287,2.287,0,0,1,2.173-1.418v1.89L166.32,6.8c-1.419,0-1.853.792-1.853,2.072v6.43h-1.936V5.09h1.913Z" transform="translate(156.098 628.675)" fill="#616263"/><path d="M182.948,0V11.1h.03l2.378-4.54h2.118l-2.605,4.54,2.947,5.676h-2.193l-2.645-5.417h-.03v5.417h-1.9V0Z" transform="translate(161.625 627.205)" fill="#616263"/><path d="M205.505,7.17a2.367,2.367,0,0,0-1.409-.534,1.146,1.146,0,0,0-1.286,1.1C202.84,9.44,206,9.517,206,12.442a2.805,2.805,0,0,1-2.935,3.031,2.9,2.9,0,0,1-1.661-.487V13.12a2.385,2.385,0,0,0,1.576.656,1.181,1.181,0,0,0,1.284-1.3c0-1.8-3.2-1.919-3.2-4.747a2.657,2.657,0,0,1,2.728-2.8,3.086,3.086,0,0,1,1.721.457Z" transform="translate(167.597 628.676)" fill="#616263"/><path d="M106.619,2.76a7.38,7.38,0,0,0-.236,14.757.283.283,0,0,1-.015-.129,9.669,9.669,0,0,0-.042-3.437c-.06-.5-.121-1.02-.165-1.551-.174-1.909.155-2.419.3-2.551a.321.321,0,0,1,.448.457c-.03.043-.26.469-.116,2.042.04.524.1,1.035.16,1.531a10.3,10.3,0,0,1,.031,3.625,7.376,7.376,0,0,0-.37-14.744M105.1,9.427a6.316,6.316,0,0,1-1.7-.457,12.706,12.706,0,0,1-2.011-.823c-.782-.419-.8-1.135-.024-1.6a2.891,2.891,0,0,1,3.441.518l1.65,1.584c.137.358-.468.693-1.353.778m6.947-1.28a12.849,12.849,0,0,1-2.011.823,6.2,6.2,0,0,1-1.706.457c-.877-.084-1.486-.419-1.352-.778l1.662-1.584a2.9,2.9,0,0,1,3.444-.518c.754.465.749,1.18-.037,1.6" transform="translate(134.207 628.028)" fill="#ef8a2c"/></g></svg>