<svg version="1.1" id="Layer_1" xmlns="http://www.w3.org/2000/svg" xmlns:xlink="http://www.w3.org/1999/xlink" x="0px" y="0px" viewBox="0 0 136.5 56.8" style="enable-background:new 0 0 136.5 56.8;" xml:space="preserve" fill="#282828">
<g>
	<g>
		<g>
			<path d="M0.1,18.9h6.2C5.1,9.1,6.9,0.7,18.4,0.7c5.1,0,12.2,1.6,12.2,8.4c0,4.8-3.6,7.2-7.3,7.2c-3.6,0-6.8-2.1-7-6.5     c1.7-0.8,3.3-2.6,3.3-5c0-2-1.1-3.3-3.6-3.3C6.5,1.5,8.6,19,20.9,19h5.3v0.7h-6.9v27.1c0,7.6,0.4,9,7.6,9v0.5H0v-0.5     c5.6,0,6.2-1.4,6.2-9V19.7H0.1V18.9z"/>
			<path d="M41.9,33.5c0,7.5,3.9,14.8,13.2,14.8c5.6,0,9.5-2.7,12-6.8l0.4,0.2c-3.3,8.5-9.7,15.1-19.9,15.1c-11.6,0-19-8-19-19.3     s9.8-19,21.4-19c11.7,0,18.2,6.1,15.9,15.1L41.9,33.5L41.9,33.5z M41.9,32.8h11.4c1.1-4.4,1.2-13.8-4.5-13.8     C43.8,19,42,27.8,41.9,32.8z"/>
			<path d="M83.7,33.5c0,7.5,3.9,14.8,13.2,14.8c5.6,0,9.5-2.7,11.9-6.8l0.4,0.2c-3.3,8.5-9.7,15.1-19.9,15.1c-11.6,0-19-8-19-19.3     s9.8-19,21.4-19c11.7,0,18.2,6.1,15.9,15.1L83.7,33.5L83.7,33.5z M83.7,32.8H95c1.1-4.4,1.2-13.8-4.5-13.8     C85.5,19,83.7,27.8,83.7,32.8z"/>
			<path d="M110.9,56.3v-0.5c5.6,0,6.2-1.4,6.2-9V11.3c0-4.8-1-6.7-7-5.3L110,5.5L130.3,0v46.7c0,7.6,0.6,9,6.2,9v0.5L110.9,56.3     L110.9,56.3z"/>
		</g>
	</g>
</g>
</svg>