<svg height="100%" width="100%" xmlns="http://www.w3.org/2000/svg" version="1.1" viewBox="0 0 729.01 308.65">
  <defs>
    <style>
      .cls-1 {
        fill: #007e3d;
      }

      .cls-2 {
        fill: black;
      }
    </style>
  </defs>
  <g>
    <g id="Layer_1">
      <path class="cls-2" d="M19.49,46.94l119.5,151.51-44.85,62.41L19.49,46.94M4.94,20.42l87.65,251.17,52.66-73.27L4.94,20.42h0Z"></path>
      <polygon class="cls-1" points="85.62 301.04 299.09 4.88 190.85 258.94 85.62 301.04"></polygon>
      <g>
        <path class="cls-2" d="M265.15,224.24v18.05c0,.26-1.52.92-3.23.92-2.17,0-4.28-.92-4.81-5.07-.07-.26-.13-.59-.13-.92-2.44,4.02-7.05,6.46-13.44,6.46-12.05,0-20.09-9.22-20.09-22s9.09-22.26,22.46-22.26c5.27,0,9.35,1.25,12.12,3.03,2.83,1.78,4.35,4.08,4.35,6.32,0,3.89-4.74,4.94-5.07,4.61-2.44-3.62-6.72-5.6-10.93-5.6-7.57,0-13.04,5.73-13.04,14.23s4.87,14.23,12.45,14.23c5.53,0,9.55-2.83,10.41-7.11l.2-2.11h-7.31c-3.1,0-4.61-.86-4.61-3.49v-.4c0-2.77,1.51-3.49,4.68-3.49h11.99c3.03,0,4.02,1.58,4.02,4.61Z"></path>
        <path class="cls-2" d="M270.22,237.87v-32.14c0-3.42,1.91-5.4,5.07-5.4h12.51c11.07,0,16.73,4.61,16.73,13.3,0,6.13-3.1,10.41-9.02,12.05-.66.2-1.38.33-2.11.4l11.2,13.57c.39.46-1.45,3.56-5.6,3.56-2.83,0-4.35-1.19-6.39-3.95l-9.35-11.66h-3.36v11.2c0,2.77-1.45,4.41-4.28,4.41h-1.32c-2.64,0-4.08-1.91-4.08-5.34ZM287.15,220.68c5.2,0,7.71-2.44,7.71-6.39,0-4.22-2.64-6.39-7.9-6.39h-7.18v12.78h7.38Z"></path>
        <path class="cls-2" d="M307.24,221.67c0-12.98,9.22-22.26,22-22.26s21.87,9.16,21.87,22.2-9.09,22.26-21.93,22.26-21.93-9.16-21.93-22.2ZM341.5,221.67c0-8.04-5.07-13.63-12.32-13.63s-12.25,5.4-12.25,13.57,5.01,13.63,12.32,13.63,12.25-5.47,12.25-13.57Z"></path>
        <path class="cls-2" d="M355.92,237.61v-31.88c0-3.42,1.91-5.4,5.07-5.4h23.71c3.03,0,4.48,1.32,4.48,3.89v.33c0,2.63-1.45,3.89-4.48,3.89h-19.1v9.03h13.96c3.16,0,4.48,1.19,4.48,3.62v.2c0,2.57-1.38,3.75-4.48,3.75h-13.96v9.95h19.43c3.03,0,4.41,1.12,4.41,3.62v.33c0,2.7-1.38,4.02-4.41,4.02h-24.04c-3.16,0-5.07-1.91-5.07-5.34Z"></path>
        <path class="cls-2" d="M393.87,238.8v-33.92c0-3.1,1.52-4.81,4.22-4.81h1.19c2.5,0,3.42.86,4.94,2.77l18.38,25.36v-23.71c0-2.9,1.32-4.41,4.15-4.41h.92c2.63,0,4.02,1.52,4.02,4.41v33.92c0,3.16-1.58,4.81-4.15,4.81h-.79c-2.5,0-3.23-.66-4.61-2.44l-19.1-26.28v24.3c0,2.9-1.45,4.41-4.22,4.41h-.92c-2.7,0-4.02-1.52-4.02-4.41Z"></path>
        <path class="cls-2" d="M438,237.61v-31.88c0-3.42,1.91-5.4,5.07-5.4h23.71c3.03,0,4.48,1.32,4.48,3.89v.33c0,2.63-1.45,3.89-4.48,3.89h-19.1v9.03h13.96c3.16,0,4.48,1.19,4.48,3.62v.2c0,2.57-1.38,3.75-4.48,3.75h-13.96v9.95h19.43c3.03,0,4.41,1.12,4.41,3.62v.33c0,2.7-1.38,4.02-4.41,4.02h-24.04c-3.16,0-5.07-1.91-5.07-5.34Z"></path>
        <path class="cls-1" d="M490.96,239.65l-14.82-36.36c-.4-.92,2.7-3.23,5.86-3.23,2.5,0,4.54,1.52,5.47,4.48l9.35,27.07,9.29-27.07c.99-3.23,3.1-4.48,5.2-4.48,3.1,0,6.06,2.37,5.73,3.23l-14.62,36.36c-1.05,2.57-2.57,3.69-5.8,3.69s-4.54-.99-5.66-3.69Z"></path>
        <path class="cls-1" d="M520.8,204.48c0-2.96,1.45-4.41,4.15-4.41h1.32c2.83,0,4.28,1.45,4.28,4.41v34.32c0,2.9-1.45,4.41-4.28,4.41h-1.32c-2.7,0-4.15-1.52-4.15-4.41v-34.32Z"></path>
        <path class="cls-1" d="M537.4,238.8v-33.92c0-3.1,1.52-4.81,4.22-4.81h1.19c2.5,0,3.42.86,4.94,2.77l18.38,25.36v-23.71c0-2.9,1.32-4.41,4.15-4.41h.92c2.63,0,4.02,1.52,4.02,4.41v33.92c0,3.16-1.58,4.81-4.15,4.81h-.79c-2.5,0-3.23-.66-4.61-2.44l-19.1-26.28v24.3c0,2.9-1.45,4.41-4.22,4.41h-.92c-2.7,0-4.02-1.52-4.02-4.41Z"></path>
        <path class="cls-1" d="M581.54,204.48c0-2.96,1.45-4.41,4.08-4.41h1.38c2.83,0,4.22,1.45,4.22,4.41v14.95l13.96-16.2c1.78-2.5,3.56-3.16,5.27-3.16,3.62,0,5.73,3.36,5.47,3.89l-14.82,17.26,15.35,18.18c.33.59-1.98,3.82-5.73,3.82-1.91,0-3.69-.79-5.27-3.03l-14.23-16.73v15.35c0,2.9-1.38,4.41-4.22,4.41h-1.38c-2.63,0-4.08-1.52-4.08-4.41v-34.32Z"></path>
        <path class="cls-1" d="M621.65,231.22c1.71,2.63,4.35,4.35,7.71,4.35,4.68,0,6.59-2.31,6.59-8.3v-22.79c0-2.96,1.38-4.41,4.08-4.41h1.38c2.77,0,4.22,1.45,4.22,4.41v22.92c0,11.2-5.07,16.47-15.08,16.47-7.9,0-12.58-3.49-12.58-7.64,0-3.56,3.49-5.27,3.69-5.01Z"></path>
        <path class="cls-1" d="M651.69,237.61v-31.88c0-3.42,1.91-5.4,5.07-5.4h23.71c3.03,0,4.48,1.32,4.48,3.89v.33c0,2.63-1.45,3.89-4.48,3.89h-19.1v9.03h13.96c3.16,0,4.48,1.19,4.48,3.62v.2c0,2.57-1.38,3.75-4.48,3.75h-13.96v9.95h19.43c3.03,0,4.41,1.12,4.41,3.62v.33c0,2.7-1.38,4.02-4.41,4.02h-24.04c-3.16,0-5.07-1.91-5.07-5.34Z"></path>
        <path class="cls-1" d="M687.53,235.24c0-2.7,3.36-5.14,3.69-4.81,2.57,3.03,7.44,5.73,12.65,5.73s7.77-1.84,7.77-5.14c0-3.82-4.28-4.61-9.29-5.73-6.79-1.51-13.77-4.02-13.77-12.78,0-7.9,6.32-13.11,16.6-13.11,5.73,0,9.81,1.38,12.25,3.16,2.04,1.38,2.96,3.1,2.96,4.68,0,3.03-3.62,5.27-3.82,5.07-2.5-2.96-6.78-5.2-11.33-5.2s-7.38,1.91-7.38,5.01c0,3.69,3.82,4.22,9.09,5.4,7.71,1.71,14.43,4.87,14.43,12.91,0,8.5-6.26,13.44-17.45,13.44-6.59,0-11.2-1.71-13.77-3.89-1.84-1.45-2.64-3.16-2.64-4.74Z"></path>
      </g>
      <g>
        <path class="cls-2" d="M249.84,151.38c0-2.31,1.51-3.75,3.89-3.75h1.78c2.64,0,3.36.99,4.41,3.42l10.08,22.72,10.14-22.72c1.05-2.5,1.84-3.42,4.35-3.42h1.65c2.44,0,4.02,1.45,4.02,3.75v36.29c0,2.04-.86,3.1-2.83,3.1h-.92c-1.91,0-2.7-1.05-2.7-3.1v-31.29l-9.42,21.21c-.73,1.71-1.45,2.9-4.35,2.9s-3.56-1.19-4.35-2.9l-9.29-21.01v31.09c0,2.04-.79,3.1-2.77,3.1h-1.05c-1.84,0-2.63-1.05-2.63-3.1v-36.29Z"></path>
        <path class="cls-2" d="M301.22,186.75v-35.04c0-2.3,1.45-3.82,3.62-3.82h24.7c2.11,0,3.16,1.05,3.16,2.83v.4c0,1.84-1.05,2.83-3.16,2.83h-21.54v11.92h16.66c2.17,0,3.16.92,3.16,2.7v.2c0,1.84-1.05,2.83-3.16,2.83h-16.66v12.91h21.93c2.11,0,3.1.92,3.1,2.7v.33c0,1.91-.99,2.96-3.1,2.96h-25.1c-2.17,0-3.62-1.45-3.62-3.75Z"></path>
        <path class="cls-2" d="M341.86,186.75v-35.04c0-2.3,1.45-3.82,3.62-3.82h24.7c2.11,0,3.16,1.05,3.16,2.83v.4c0,1.84-1.05,2.83-3.16,2.83h-21.54v11.92h16.66c2.17,0,3.16.92,3.16,2.7v.2c0,1.84-1.05,2.83-3.16,2.83h-16.66v12.91h21.93c2.11,0,3.1.92,3.1,2.7v.33c0,1.91-.99,2.96-3.1,2.96h-25.1c-2.17,0-3.62-1.45-3.62-3.75Z"></path>
        <path class="cls-2" d="M382.51,187.28v-35.57c0-2.3,1.45-3.82,3.62-3.82h12.12c10.41,0,15.94,4.35,15.94,12.78,0,6.39-3.49,10.74-10.01,12.12-.86.2-1.78.33-2.7.4l12.45,14.82c.33.4-1.12,2.77-3.95,2.77-1.78,0-2.96-.72-4.41-2.64l-11.66-14.29h-4.68v13.83c0,1.84-.99,3.1-2.96,3.1h-.92c-1.84,0-2.83-1.25-2.83-3.49ZM398.12,168.5c6.26,0,9.22-2.9,9.22-7.51,0-4.94-3.16-7.51-9.42-7.51h-8.76v15.02h8.96Z"></path>
      </g>
    </g>
  </g>
</svg>