<svg height="40" viewBox="0 0 192 40" fill="none" role="img" aria-labelledby="title" xmlns="http://www.w3.org/2000/svg"><title>Zur Homepage</title><path d="M39.0034 19.1409C38.9076 13.9936 36.8367 9.1814 33.1618 5.57827C29.4868 1.97514 24.6507 0 19.5154 0C19.3957 0 19.264 0 19.1443 0C13.9371 0.0957643 9.07705 2.21455 5.46195 5.9733C1.84685 9.72007 -0.0923797 14.6519 0.00338461 19.8711C0.0991489 25.0184 2.17005 29.8306 5.84501 33.4337C9.50799 37.0249 14.3561 39.012 19.4914 39.012C19.6111 39.012 19.7428 39.012 19.8625 39.012C25.0697 38.9162 29.9297 36.7974 33.5448 33.0387C37.1599 29.2799 39.0991 24.3481 39.0034 19.1409ZM32.1682 31.7099C28.9122 35.0976 24.531 37.0009 19.8266 37.0967C15.2299 37.1805 11.0043 35.4687 7.80817 32.6077V20.1704L7.88 20.1464L15.8763 33.2781H18.8689V15.2864H15.8763V28.3941L15.8045 28.418L7.82014 15.2864H4.81554V29.1243C3.0439 26.4429 1.99049 23.2468 1.91867 19.8352C1.83488 15.1308 3.58257 10.6777 6.83856 7.30203C10.0945 3.92634 14.4877 2.01105 19.1802 1.91529C19.2879 1.91529 19.4076 1.91529 19.5154 1.91529C23.9804 1.91529 28.0863 3.62707 31.2106 6.41621V18.8297L31.1387 18.8536L23.1424 5.72192H20.1378V23.7136H23.1424V10.6059L23.2143 10.582L31.1986 23.7256H34.1912V9.88766C35.9629 12.5691 37.0163 15.7652 37.0881 19.1768C37.1839 23.8692 35.4362 28.3223 32.1682 31.7099Z" fill="currentColor"></path><path d="M61.0229 13V23.4H60.8829L53.8429 13H51.6229V27H53.6829V16.62H53.8229L60.8629 27H63.0829V13H61.0229ZM75.23 21.86C75.23 18.42 73.09 16.8 70.65 16.8C67.93 16.8 65.79 18.84 65.79 22.1C65.79 25.18 67.85 27.2 70.73 27.2C73.09 27.2 74.77 26 75.19 24H73.23C72.91 25.02 71.99 25.54 70.73 25.54C68.97 25.54 67.89 24.3 67.79 22.52H75.19C75.21 22.26 75.23 22.06 75.23 21.86ZM70.65 18.46C72.19 18.46 73.23 19.54 73.25 21.08H67.81C68.01 19.62 69.07 18.46 70.65 18.46ZM86.4757 17H84.4357V22.6C84.4357 24.58 83.2557 25.42 81.9557 25.42C80.6757 25.42 79.6757 24.6 79.6757 22.76V17H77.6357V23.2C77.6357 25.78 79.1557 27.2 81.3757 27.2C82.9157 27.2 83.7357 26.56 84.2957 25.8H84.4357L84.6357 27H86.4757V17ZM98.3011 21.86C98.3011 18.42 96.1611 16.8 93.7211 16.8C91.0011 16.8 88.8611 18.84 88.8611 22.1C88.8611 25.18 90.9211 27.2 93.8011 27.2C96.1611 27.2 97.8411 26 98.2611 24H96.3011C95.9811 25.02 95.0611 25.54 93.8011 25.54C92.0411 25.54 90.9611 24.3 90.8611 22.52H98.2611C98.2811 22.26 98.3011 22.06 98.3011 21.86ZM93.7211 18.46C95.2611 18.46 96.3011 19.54 96.3211 21.08H90.8811C91.0811 19.62 92.1411 18.46 93.7211 18.46ZM115.917 13V23.4H115.777L108.737 13H106.517V27H108.577V16.62H108.717L115.757 27H117.977V13H115.917ZM129.704 25.46C129.204 25.46 128.944 25.2 128.944 24.64V20.54C128.944 18.04 127.224 16.8 124.944 16.8C122.544 16.8 121.064 18.24 120.884 20.22H122.904C123.084 19.18 123.684 18.46 124.944 18.46C126.184 18.46 126.904 19.18 126.904 20.46V20.96L123.844 21.26C121.924 21.44 120.484 22.42 120.484 24.32C120.484 26.28 121.944 27.2 123.884 27.2C125.384 27.2 126.484 26.62 127.164 25.76C127.444 26.7 128.104 27 129.044 27H129.964V25.46H129.704ZM126.904 23.16C126.904 24.96 125.424 25.6 124.184 25.6C123.284 25.6 122.524 25.24 122.524 24.24C122.524 23.28 123.344 22.76 124.524 22.66L126.904 22.42V23.16ZM131.827 27H133.867V21.96C133.867 20.24 134.667 18.78 136.567 18.78C136.907 18.78 137.227 18.8 137.547 18.84V16.8H136.907C135.247 16.8 134.547 17.46 134.007 18.4H133.867L133.667 17H131.827V27ZM139.31 27H141.35V21.96C141.35 20.24 142.15 18.78 144.05 18.78C144.39 18.78 144.71 18.8 145.03 18.84V16.8H144.39C142.73 16.8 142.03 17.46 141.49 18.4H141.35L141.15 17H139.31V27ZM155.493 25.46C154.993 25.46 154.733 25.2 154.733 24.64V20.54C154.733 18.04 153.013 16.8 150.733 16.8C148.333 16.8 146.853 18.24 146.673 20.22H148.693C148.873 19.18 149.473 18.46 150.733 18.46C151.973 18.46 152.693 19.18 152.693 20.46V20.96L149.633 21.26C147.713 21.44 146.273 22.42 146.273 24.32C146.273 26.28 147.733 27.2 149.673 27.2C151.173 27.2 152.273 26.62 152.953 25.76C153.233 26.7 153.893 27 154.833 27H155.753V25.46H155.493ZM152.693 23.16C152.693 24.96 151.213 25.6 149.973 25.6C149.073 25.6 148.313 25.24 148.313 24.24C148.313 23.28 149.133 22.76 150.313 22.66L152.693 22.42V23.16ZM161.575 27.2C162.235 27.2 162.755 27.08 163.135 26.98V25.4C162.835 25.5 162.475 25.56 162.155 25.56C161.095 25.56 160.855 24.96 160.855 24.3V18.64H163.395V17H160.855V14.28H158.995V15.5C158.995 16.58 158.555 17 157.375 17H156.675V18.64H158.835V24.58C158.835 25.72 159.235 27.2 161.575 27.2ZM166.196 15.52C166.896 15.52 167.476 14.92 167.476 14.22C167.476 13.5 166.896 12.94 166.196 12.94C165.476 12.94 164.876 13.5 164.876 14.22C164.876 14.92 165.476 15.52 166.196 15.52ZM165.176 27H167.216V17H165.176V27ZM172.825 27H175.305L179.125 17H177.025L174.145 24.88H174.005L171.105 17H168.985L172.825 27ZM190.024 21.86C190.024 18.42 187.884 16.8 185.444 16.8C182.724 16.8 180.584 18.84 180.584 22.1C180.584 25.18 182.644 27.2 185.524 27.2C187.884 27.2 189.564 26 189.984 24H188.024C187.704 25.02 186.784 25.54 185.524 25.54C183.764 25.54 182.684 24.3 182.584 22.52H189.984C190.004 22.26 190.024 22.06 190.024 21.86ZM185.444 18.46C186.984 18.46 188.024 19.54 188.044 21.08H182.604C182.804 19.62 183.864 18.46 185.444 18.46Z" fill="currentColor"></path></svg>