<svg width="110" height="125" viewBox="0 0 110 125" fill="none" xmlns="http://www.w3.org/2000/svg">
<g clip-path="url(#clip0_828_24)">
<path d="M49.6672 54.5066C49.6672 45.3236 51.4528 41.1147 57.511 35.6304L61.0184 32.5056C64.0794 29.6997 66.2476 27.0851 66.2476 22.8762C66.2476 16.6905 62.4852 12.5454 55.9805 12.5454C48.5831 12.5454 45.4584 18.5398 45.267 26.575H35.3826C35.7014 11.5888 45.0757 4.51025 56.2356 4.51025C67.3955 4.51025 76.5147 11.1424 76.5147 22.2385C76.5147 30.2099 73.2624 33.7173 69.0535 37.6711L65.5462 40.8596C61.0184 44.8772 59.4242 47.9382 59.4242 54.5703H49.6672V54.5066ZM49.3484 72.6175V63.3069H59.8068V72.6175H49.3484Z" fill="#C2C2C1"/>
<path d="M60.2532 73H48.9658V62.8604H60.2532V73ZM59.8068 54.9529H49.2209V54.5065C49.2209 45.2597 51.0065 40.9233 57.1922 35.3115L60.6996 32.1867C63.8882 29.2532 65.8013 26.7662 65.8013 22.8762C65.8013 16.7542 62.0388 12.9917 55.9168 12.9917C47.244 12.9917 45.7135 21.537 45.586 26.5749V26.9575H35V26.5111C35.3189 9.93069 46.1599 4 56.2357 4C68.4159 4 76.9612 11.4612 76.9612 22.1109C76.9612 30.2098 73.8364 33.7172 69.3725 37.7985L65.8651 40.9871C61.2736 45.0684 59.8706 48.1932 59.8706 54.3789V54.9529H59.8068Z" fill="#C2C2C1"/>
<path d="M107.9 68.5C107.9 97.83 84.1199 121.6 54.7999 121.6C25.4799 121.6 1.68994 97.83 1.68994 68.5H107.9Z" fill="white" stroke="black" stroke-width="3.38" stroke-miterlimit="10"/>
<path d="M81.2798 68.5801C81.2798 97.9101 65.8998 121.6 54.7998 121.6C43.1198 121.6 28.3198 98.0501 28.3198 68.7301" stroke="black" stroke-width="3.38" stroke-miterlimit="10"/>
<path d="M8.20996 94.1599H101.3" stroke="black" stroke-width="3.38" stroke-miterlimit="10"/>
<path d="M54.79 68.8V121.6" stroke="black" stroke-width="3.38" stroke-miterlimit="10"/>
</g>
<defs>
<clipPath id="clip0_828_24">
<rect width="109.59" height="124.29" fill="white"/>
</clipPath>
</defs>
</svg>
