<?xml version="1.0" encoding="utf-8"?>
<!-- Generator: Adobe Illustrator 26.3.1, SVG Export Plug-In . SVG Version: 6.00 Build 0)  -->
<svg version="1.1" id="Livello_1" xmlns="http://www.w3.org/2000/svg" xmlns:xlink="http://www.w3.org/1999/xlink" x="0px" y="0px"
	 viewBox="0 0 170.6 233.3" style="enable-background:new 0 0 170.6 233.3;" xml:space="preserve">
<style type="text/css">
	.st0{fill:#C2C2C1;}
	.st1{fill:#FFA700;}
	.st2{fill:#00FF00;}
</style>
<g>
	<g>
		<g>
			<path class="st0" d="M77.7,115.2c0-14.4,2.8-21,12.3-29.6l5.5-4.9c4.8-4.4,8.2-8.5,8.2-15.1c0-9.7-5.9-16.2-16.1-16.2
				c-11.6,0-16.5,9.4-16.8,22H55.3C55.8,47.9,70.5,36.8,88,36.8s31.8,10.4,31.8,27.8c0,12.5-5.1,18-11.7,24.2l-5.5,5
				c-7.1,6.3-9.6,11.1-9.6,21.5H77.7z M77.2,143.6V129h16.4v14.6H77.2z"/>
			<path class="st0" d="M94.3,144.2H76.6v-15.9h17.7V144.2z M93.6,115.9H77v-0.7c0-14.5,2.8-21.3,12.5-30.1l5.5-4.9
				c5-4.6,8-8.5,8-14.6c0-9.6-5.9-15.5-15.5-15.5c-13.6,0-16,13.4-16.2,21.3l0,0.6H54.7l0-0.7c0.5-26,17.5-35.3,33.3-35.3
				c19.1,0,32.5,11.7,32.5,28.4c0,12.7-4.9,18.2-11.9,24.6l-5.5,5c-7.2,6.4-9.4,11.3-9.4,21V115.9z"/>
		</g>
	</g>
	<g>
		<g>
			<g>
				<g>
					<path d="M85.3,227.6c-44.6,0-80.9-36.3-80.9-80.9v-2.5h161.7v2.5C166.1,191.3,129.9,227.6,85.3,227.6z M9.5,149.2
						c1.3,40.7,34.8,73.4,75.8,73.4c41,0,74.5-32.7,75.8-73.4H9.5z"/>
				</g>
			</g>
			<g>
				<g>
					<path d="M85.3,227.6c-18.8,0-41.6-35.9-41.6-80.5h5c0,43.8,21.9,75.5,36.6,75.5c7.1,0,16.3-8.5,23.5-21.6
						c8.4-15.5,13.1-34.7,13.1-54.2h5C126.9,190.3,104,227.6,85.3,227.6z"/>
				</g>
			</g>
			<g>
				<g>
					<rect x="16.5" y="182.1" width="137.4" height="5"/>
				</g>
			</g>
			<g>
				<g>
					<rect x="82.8" y="147.2" width="5" height="77.9"/>
				</g>
			</g>
		</g>
	</g>
</g>
</svg>
